<svg xmlns="http://www.w3.org/2000/svg" version="1.1" xmlns:xlink="http://www.w3.org/1999/xlink" xmlns:svgjs="http://svgjs.dev/svgjs" width="1000" height="1000" viewBox="0 0 1000 1000"><rect width="1000" height="1000" fill="#000000"></rect><g transform="matrix(0.7,0,0,0.7,149.57575757575756,427.17739706848994)"><svg viewBox="0 0 396 82" data-background-color="#ffffff" preserveAspectRatio="xMidYMid meet" height="207" width="1000" xmlns="http://www.w3.org/2000/svg" xmlns:xlink="http://www.w3.org/1999/xlink"><g id="tight-bounds" transform="matrix(1,0,0,1,0.2400000000000091,0.21085880182073424)"><svg viewBox="0 0 395.52 81.57828239635855" height="81.57828239635855" width="395.52"><g><svg viewBox="0 0 560.3736280569849 115.58029449106165" height="81.57828239635855" width="395.52"><g><rect width="10.371293767231698" height="115.58029449106165" x="127.33235060590054" y="0" fill="#ffffff" opacity="1" stroke-width="0" stroke="transparent" fill-opacity="1" class="rect-qz-0" data-fill-palette-color="primary" rx="1%" id="qz-0" data-palette-color="#336a86"></rect></g><g transform="matrix(1,0,0,1,164.85362805698486,0.2875131703757674)"><svg viewBox="0 0 395.52 115.00526815031012" height="115.00526815031012" width="395.52"><g id="textblocktransform"><svg viewBox="0 0 395.52 115.00526815031012" height="115.00526815031012" width="395.52" id="textblock"><g><svg viewBox="0 0 395.52 115.00526815031012" height="115.00526815031012" width="395.52"><g transform="matrix(1,0,0,1,0,0)"><svg width="395.52" viewBox="1.45 -39.15 137.04000000000002 39.85" height="115.00526815031012" data-palette-color="#336a86"><path d="M18.25-26.45L18.25-26.45Q20.15-26.45 21.43-25.95 22.7-25.45 23.55-24.55L23.55-24.55Q24.5-23.55 24.9-22.05 25.3-20.55 25.3-18L25.3-18 25.3-4.65Q25.3-2.55 26.18-1.8 27.05-1.05 29.1-1.05L29.1-1.05 29.1 0Q28.25-0.05 26.5-0.13 24.75-0.2 23.1-0.2L23.1-0.2Q21.45-0.2 19.88-0.13 18.3-0.05 17.5 0L17.5 0 17.5-1.05Q19.3-1.05 20.05-1.8 20.8-2.55 20.8-4.65L20.8-4.65 20.8-19.1Q20.8-20.65 20.55-21.95 20.3-23.25 19.43-24.05 18.55-24.85 16.75-24.85L16.75-24.85Q13.6-24.85 11.68-22.23 9.75-19.6 9.75-15.75L9.75-15.75 9.75-4.65Q9.75-2.55 10.5-1.8 11.25-1.05 13.05-1.05L13.05-1.05 13.05 0Q12.25-0.05 10.68-0.13 9.1-0.2 7.45-0.2L7.45-0.2Q5.8-0.2 4.05-0.13 2.3-0.05 1.45 0L1.45 0 1.45-1.05Q3.5-1.05 4.38-1.8 5.25-2.55 5.25-4.65L5.25-4.65 5.25-20.3Q5.25-22.55 4.45-23.63 3.65-24.7 1.45-24.7L1.45-24.7 1.45-25.75Q3.05-25.6 4.55-25.6L4.55-25.6Q6-25.6 7.33-25.78 8.65-25.95 9.75-26.3L9.75-26.3 9.75-20.4Q11.05-23.8 13.38-25.13 15.7-26.45 18.25-26.45ZM37-38.25L37-38.25Q38.3-38.25 39.25-37.3 40.2-36.35 40.2-35.05L40.2-35.05Q40.2-33.75 39.25-32.8 38.3-31.85 37-31.85L37-31.85Q35.7-31.85 34.75-32.8 33.8-33.75 33.8-35.05L33.8-35.05Q33.8-36.35 34.75-37.3 35.7-38.25 37-38.25ZM39.6-26.3L39.6-26.3 39.6-4.65Q39.6-2.55 40.47-1.8 41.35-1.05 43.4-1.05L43.4-1.05 43.4 0Q42.55-0.05 40.82-0.13 39.1-0.2 37.35-0.2L37.35-0.2Q35.65-0.2 33.9-0.13 32.15-0.05 31.3 0L31.3 0 31.3-1.05Q33.35-1.05 34.22-1.8 35.1-2.55 35.1-4.65L35.1-4.65 35.1-20.3Q35.1-22.55 34.3-23.63 33.5-24.7 31.3-24.7L31.3-24.7 31.3-25.75Q32.9-25.6 34.4-25.6L34.4-25.6Q35.85-25.6 37.17-25.78 38.5-25.95 39.6-26.3ZM54-34.05L54-34.05 54-25.7 61.4-25.7 61.4-24.7 54-24.7 54-5.35Q54-3 54.85-2.05 55.7-1.1 57.2-1.1L57.2-1.1Q58.7-1.1 59.8-2.33 60.9-3.55 61.7-6.45L61.7-6.45 62.7-6.2Q62.2-3.3 60.72-1.3 59.25 0.7 56.2 0.7L56.2 0.7Q54.5 0.7 53.4 0.28 52.3-0.15 51.45-0.95L51.45-0.95Q50.35-2.1 49.92-3.7 49.5-5.3 49.5-7.95L49.5-7.95 49.5-24.7 44.7-24.7 44.7-25.7 49.5-25.7 49.5-33.35Q50.75-33.4 51.9-33.55 53.05-33.7 54-34.05ZM75.79-26.45L75.79-26.45Q80.19-26.45 82.67-23.78 85.14-21.1 85.14-15.45L85.14-15.45 67.49-15.45 67.44-16.4 80.34-16.4Q80.44-18.85 79.94-20.93 79.44-23 78.37-24.25 77.29-25.5 75.59-25.5L75.59-25.5Q73.29-25.5 71.52-23.2 69.74-20.9 69.39-15.9L69.39-15.9 69.54-15.7Q69.44-14.95 69.39-14.05 69.34-13.15 69.34-12.25L69.34-12.25Q69.34-8.85 70.44-6.4 71.54-3.95 73.32-2.68 75.09-1.4 76.99-1.4L76.99-1.4Q79.24-1.4 81.14-2.5 83.04-3.6 84.34-6.4L84.34-6.4 85.34-6Q84.79-4.35 83.54-2.8 82.29-1.25 80.39-0.28 78.49 0.7 75.99 0.7L75.99 0.7Q72.39 0.7 69.82-0.95 67.24-2.6 65.87-5.53 64.49-8.45 64.49-12.25L64.49-12.25Q64.49-16.65 65.89-19.83 67.29-23 69.84-24.73 72.39-26.45 75.79-26.45ZM97.89-26.45L97.89-26.45Q99.89-26.45 101.29-25.8 102.69-25.15 103.34-24.6L103.34-24.6Q104.99-23.25 105.34-26.4L105.34-26.4 106.49-26.4Q106.39-25 106.34-23.08 106.29-21.15 106.29-17.9L106.29-17.9 105.14-17.9Q104.84-19.75 104.12-21.5 103.39-23.25 101.99-24.38 100.59-25.5 98.34-25.5L98.34-25.5Q96.59-25.5 95.42-24.53 94.24-23.55 94.24-21.65L94.24-21.65Q94.24-20.15 95.14-19.07 96.04-18 97.49-17.07 98.94-16.15 100.64-15.05L100.64-15.05Q103.49-13.2 105.49-11.3 107.49-9.4 107.49-6.3L107.49-6.3Q107.49-4 106.29-2.45 105.09-0.9 103.17-0.1 101.24 0.7 98.94 0.7L98.94 0.7Q97.84 0.7 96.87 0.53 95.89 0.35 94.99 0L94.99 0Q94.49-0.25 93.97-0.6 93.44-0.95 92.94-1.35L92.94-1.35Q92.44-1.75 92.04-1.33 91.64-0.9 91.44 0.35L91.44 0.35 90.29 0.35Q90.39-1.25 90.44-3.55 90.49-5.85 90.49-9.65L90.49-9.65 91.64-9.65Q91.99-6.85 92.64-4.75 93.29-2.65 94.69-1.48 96.09-0.3 98.59-0.3L98.59-0.3Q100.09-0.3 101.57-1.35 103.04-2.4 103.04-5.05L103.04-5.05Q103.04-7.25 101.44-8.65 99.84-10.05 97.39-11.6L97.39-11.6Q95.59-12.75 94.02-13.9 92.44-15.05 91.47-16.5 90.49-17.95 90.49-20L90.49-20Q90.49-22.25 91.52-23.68 92.54-25.1 94.24-25.78 95.94-26.45 97.89-26.45ZM119.14-39.15L119.14-39.15 119.14-20.45Q120.44-23.85 122.76-25.15 125.09-26.45 127.64-26.45L127.64-26.45Q129.54-26.45 130.81-25.95 132.09-25.45 132.94-24.55L132.94-24.55Q133.89-23.55 134.29-22.05 134.69-20.55 134.69-18L134.69-18 134.69-4.65Q134.69-2.55 135.56-1.8 136.44-1.05 138.49-1.05L138.49-1.05 138.49 0Q137.64-0.05 135.89-0.13 134.14-0.2 132.49-0.2L132.49-0.2Q130.84-0.2 129.26-0.13 127.69-0.05 126.89 0L126.89 0 126.89-1.05Q128.69-1.05 129.44-1.8 130.19-2.55 130.19-4.65L130.19-4.65 130.19-19.1Q130.19-20.65 129.94-21.95 129.69-23.25 128.81-24.05 127.94-24.85 126.14-24.85L126.14-24.85Q123.09-24.85 121.11-22.33 119.14-19.8 119.14-15.8L119.14-15.8 119.14-4.65Q119.14-2.55 119.89-1.8 120.64-1.05 122.44-1.05L122.44-1.05 122.44 0Q121.64-0.05 120.06-0.13 118.49-0.2 116.84-0.2L116.84-0.2Q115.19-0.2 113.44-0.13 111.69-0.05 110.84 0L110.84 0 110.84-1.05Q112.89-1.05 113.76-1.8 114.64-2.55 114.64-4.65L114.64-4.65 114.64-33.15Q114.64-35.4 113.84-36.48 113.04-37.55 110.84-37.55L110.84-37.55 110.84-38.6Q112.44-38.45 113.94-38.45L113.94-38.45Q115.39-38.45 116.71-38.63 118.04-38.8 119.14-39.15Z" opacity="1" transform="matrix(1,0,0,1,0,0)" fill="#ffffff" class="wordmark-text-0" data-fill-palette-color="primary" id="text-0"></path></svg></g></svg></g></svg></g></svg></g><g transform="matrix(1,0,0,1,0,0.2875131703757674)"><svg viewBox="0 0 100.18236692204793 115.00526815031012" height="115.00526815031012" width="100.18236692204793"><g><svg xmlns="http://www.w3.org/2000/svg" xmlns:xlink="http://www.w3.org/1999/xlink" version="1.1" x="0" y="0" viewBox="10.1 5.2 78.4 90" enable-background="new 0 0 100 100" xml:space="preserve" height="115.00526815031012" width="100.18236692204793" class="icon-icon-0" data-fill-palette-color="accent" id="icon-0"><polygon fill-rule="evenodd" clip-rule="evenodd" fill="#ffffff" points="88.5,28.2 68.4,59.9 68.5,22.3 " data-fill-palette-color="accent"></polygon><polygon fill-rule="evenodd" clip-rule="evenodd" fill="#ffffff" points="49.8,5.2 67.2,38.5 34.7,19.6 " data-fill-palette-color="accent"></polygon><polygon fill-rule="evenodd" clip-rule="evenodd" fill="#ffffff" points="67.8,38.3 67.8,22.3 60.8,24.5 " data-fill-palette-color="accent"></polygon><polygon fill-rule="evenodd" clip-rule="evenodd" fill="#ffffff" points="88.2,73.2 50.6,71.7 83.2,52.9 " data-fill-palette-color="accent"></polygon><polygon fill-rule="evenodd" clip-rule="evenodd" fill="#ffffff" points="69.1,60.3 82.8,52.3 77.4,47.4 " data-fill-palette-color="accent"></polygon><polygon fill-rule="evenodd" clip-rule="evenodd" fill="#ffffff" points="48.7,95.2 31.5,61.9 63.9,80.9 " data-fill-palette-color="accent"></polygon><polygon fill-rule="evenodd" clip-rule="evenodd" fill="#ffffff" points="50.5,72.2 64.2,80.2 65.8,73.1 " data-fill-palette-color="accent"></polygon><polygon fill-rule="evenodd" clip-rule="evenodd" fill="#ffffff" points="10.1,72 30.5,40.4 30.1,78 " data-fill-palette-color="accent"></polygon><polygon fill-rule="evenodd" clip-rule="evenodd" fill="#ffffff" points="30.9,62.1 30.8,78 37.8,75.8 " data-fill-palette-color="accent"></polygon><polygon fill-rule="evenodd" clip-rule="evenodd" fill="#ffffff" points="11,27 48.5,28.9 15.8,47.3 " data-fill-palette-color="accent"></polygon><polygon fill-rule="evenodd" clip-rule="evenodd" fill="#ffffff" points="30,40.1 16.1,47.9 21.5,52.9 " data-fill-palette-color="accent"></polygon><polygon fill-rule="evenodd" clip-rule="evenodd" fill="#ffffff" points="48.2,28.3 34.5,20.2 32.9,27.4 " data-fill-palette-color="accent"></polygon></svg></g></svg></g></svg></g><defs></defs></svg><rect width="395.52" height="81.57828239635855" fill="none" stroke="none" visibility="hidden"></rect></g></svg></g></svg>