<svg xmlns="http://www.w3.org/2000/svg" version="1.1" xmlns:xlink="http://www.w3.org/1999/xlink" xmlns:svgjs="http://svgjs.dev/svgjs" width="1000" height="1000" viewBox="0 0 1000 1000"><rect width="1000" height="1000" fill="#000000"></rect><g transform="matrix(0.7,0,0,0.7,150.00005140625,106.25)"><svg viewBox="0 0 320 360" data-background-color="#1f0f53" preserveAspectRatio="xMidYMid meet" height="1125" width="1000" xmlns="http://www.w3.org/2000/svg" xmlns:xlink="http://www.w3.org/1999/xlink"><g id="tight-bounds" transform="matrix(1,0,0,1,0.000023499999997511622,0)"><svg viewBox="0 0 320 360" height="360" width="320"><g><svg></svg></g><g><svg viewBox="0 0 320 360" height="360" width="320"><g><path transform="translate(-74.99272,-51.79039) scale(4.65793,4.65793)" d="M20.6 59.9l0.8 1-0.4-1.3c-0.1-0.6-0.8 0.1-0.4 0.3M21.5 59.3c0.3 0.5 0.6 1 0.6 1.5 0 0.7 0.6 1 1.1 1.2-0.7-0.8-1.1-3-1.7-2.7M59.9 16.9c1.7 0 3.3-0.2 5.1 0.2 4.4 1.1 8.1 3.3 10.6 6.4l7 11.2c0.3 2.8 0.9 5.9 0.8 9.3 0.7 0 0.6-1 1.4-1.2-0.8 2-1.2 4.5-1.4 7.4-0.5-1.6 0-4 0.1-5.3-0.7 1.1-1.1 0.3-1.1-0.2 0.1-0.8-0.3-0.7-0.6-1-1.1-1-1.8-2.1-2.6-3.8 0.5-1.3 0.6-3.2-1-4.2-0.5-0.3-1.1-0.8-1.4-1.6-0.4-1.1-1.1-2.4-0.9-4.1 0.1-0.5-1.5 1.1-2.4 0.4-3.9-2.7-7.8-5.8-12.5-8.4-2.5 0-4.3-0.9-5.2-2-0.8-1-0.2-2.3 1-2.4 0.7 0 1.5-0.2 2.1 0.2 0.1-0.4 0.5-0.9 1-0.9M50 14.6l0.2 0.1c1 0.2 1.5 1.6 2.6 1.1 0 0.7 0.1 1.4-0.1 1.9-0.3 0.8-1.2 0.8-1.9 0.8-6.7-0.4-10.6 2.4-14.7 4.8-1.1 0.7-2.3 1.2-3.2 2.1-4.3 4-9 7.7-10.1 15.1l-0.9 8.2c-0.1 0.9-1.1 1.8-0.9 2.9l0.7 4.9c-0.7-0.7-1.1 0.2-0.9 0.6 0.1 0.3 0.5 1.3 1.1 0.4 0.8 1.5 1.6 4.4 2.7 5.7 3.4 4 7.8 7.6 11.4 11.2 0.9-0.2 1.6-0.2 1.8-0.8 0.3 0.6-0.3 1.2-0.8 1.3 1.6 1 3.4 1.9 5.8 2.1 3.1 0.2 6 0.7 8.7 1.4 1.4-0.4 2.8-0.6 4.3-0.7 0.5 0 0.8-0.8 1.4-1l0.1-1c0.6 0.9 0.5-0.3 0.1-0.9 0.7 0.6 0.9 1.1 1.2 1.5 0-0.3 0.8-1.4 0.8-0.1l0.2-1.3c0.3-0.2 0.4 1.1 0.7 0.2 0.3-0.9 0.9-0.2 1.5-0.5-0.2 0.4-0.1 1.2 0.6 0.7l0.8-0.7c0.5 1.2 1.3 0.7 1.7 0.5 4.4-2.8 8.8-6.1 13-9.4l-0.1 1.3 0.5-1.6c0.5 0.5 0.9 0.1 1.1-0.2 0.6-1 1.4-2 2.7-2.9-1.6 4.3-3.5 7.7-5.9 10.5l-1 1.2c0 0.7-0.2 1.6-1 1.7-0.4 0.1-1.2-0.2-1.8 0.4-0.3 0.4 0.7 1.2-0.1 0.6-0.7-0.5-1.4 0-2.2 0.2-0.6 0.2 0.4 0.8 0.6 1.2 0.2 0.4 0.4 0.8 0.3 1.3l-1.1-1.2c-1.3 0.7-2.1 2-3.2 3-0.5 0.4-0.3 1.1-0.3 1.7-0.7 0-1.5-0.2-1.9 0.2-0.3 0.4-0.2 1-0.2 1.6-1-0.1-1.1-1.6-2-1.3-0.9 0.2-1.9 0.3-2.7 0.8 0.6 1.2-1 0.5-0.8 0.7-1.5-0.9-2.8-1.6-4.4-1-3.4-1.1-7.6-0.6-10.7-0.2 0-0.5 0.1-1-0.1-1.1-0.2 0.5-0.8 0.3-0.7 0.3-1.9-1.3-3.8-2.1-5.8-3.2-1.8 0.2-3.5-0.7-4-1.2-1.4-1.3-3-0.6-4.3-0.9-2.8-0.7-3.8-3.6-4.1-5.6-0.2-1-1-1.4-1.3-1.3-1.3-4.2-3.3-8-4.9-11.9-0.4-1-0.3-2-0.3-3.1 0.5 0.2 1 0.1 0.9-0.6-0.5-3.3-1.7-5.8-3-8.2 0.7-3.4 0.8-7.4 2.4-10.4 1.4-2.7 4-4.1 5.8-6.4 0.6-0.8 0.6-1.9 1.2-2.6 2-2 4-4.1 6.2-5.9 1-0.8 2.2 0 3.7-0.3 0.5-1.8 2.5-3.4 4.4-2.9 0.8 0.2 2.4-1.9 2.9-2.1 0.8-0.3 0.4 0.8 0.4 1.5 1.9-1.5 4.5-2.3 6.9-3.2" fill="#ffffff" fill-rule="nonzero" stroke="none" stroke-width="1" stroke-linecap="butt" stroke-linejoin="miter" stroke-miterlimit="10" stroke-dasharray="" stroke-dashoffset="0" font-family="none" font-weight="none" font-size="none" text-anchor="none" style="mix-blend-mode: normal" data-fill-palette-color="tertiary"></path></g><g transform="matrix(1,0,0,1,114.78998968441422,90)"><svg viewBox="0 0 90.42002063117154 180" height="180" width="90.42002063117154"><g><svg viewBox="0 0 90.42002063117154 180" height="180" width="90.42002063117154"><g><svg viewBox="0 0 150.24793388429754 299.099999208031" height="180" width="90.42002063117154"><g transform="matrix(1,0,0,1,0,119.09999920803102)"><svg viewBox="0 0 150.24793388429754 180" height="180" width="150.24793388429754"><g id="textblocktransform"><svg viewBox="0 0 150.24793388429754 180" height="180" width="150.24793388429754" id="textblock"><g><svg viewBox="0 0 150.24793388429754 180" height="180" width="150.24793388429754"><g transform="matrix(1,0,0,1,0,0)"><svg width="150.24793388429754" viewBox="3.15 -24.2 20.200000000000003 24.2" height="180" data-palette-color="#ffdb99"><path d="M14.3-24.2Q16.75-24.2 18.82-23.2 20.9-22.2 22.13-20.25 23.35-18.3 23.35-15.65L23.35-15.65 23.35 0 19.95 0 19.95-14.15Q19.95-21.1 13.75-21.1L13.75-21.1Q10.15-21.1 8.35-18.55 6.55-16 6.55-11.7L6.55-11.7 6.55 0 3.15 0 3.15-23.4 6.55-23.4 6.55-19.5Q7.75-21.75 9.73-22.98 11.7-24.2 14.3-24.2L14.3-24.2Z" opacity="1" transform="matrix(1,0,0,1,0,0)" fill="#ffffff" class="wordmark-text-0" data-fill-palette-color="primary" id="text-0"></path></svg></g></svg></g></svg></g></svg></g><g transform="matrix(1,0,0,1,28.697355371900834,0)"><svg viewBox="0 0 92.85322314049587 92.83367920803103" height="92.83367920803103" width="92.85322314049587"><g><svg xmlns="http://www.w3.org/2000/svg" xmlns:xlink="http://www.w3.org/1999/xlink" version="1.1" x="0" y="0" viewBox="2.498 2.5 19.003999999999998 19" style="enable-background:new 0 0 24 24;" xml:space="preserve" height="92.83367920803103" width="92.85322314049587" class="icon-icon-0" data-fill-palette-color="accent" id="icon-0"><g fill="#ff5db2" data-fill-palette-color="accent"><path d="M3.002 2.5H2.992C2.716 2.5 2.498 2.724 2.498 3s0.229 0.5 0.505 0.5c0.275 0 0.5-0.224 0.5-0.5S3.278 2.5 3.002 2.5z" fill="#ffffff" data-fill-palette-color="accent"></path><path d="M5.002 2.5H4.992C4.716 2.5 4.498 2.724 4.498 3s0.229 0.5 0.505 0.5c0.275 0 0.5-0.224 0.5-0.5S5.278 2.5 5.002 2.5z" fill="#ffffff" data-fill-palette-color="accent"></path><path d="M7.002 2.5H6.992C6.716 2.5 6.498 2.724 6.498 3s0.229 0.5 0.505 0.5c0.275 0 0.5-0.224 0.5-0.5S7.278 2.5 7.002 2.5z" fill="#ffffff" data-fill-palette-color="accent"></path><path d="M9.002 2.5H8.992C8.716 2.5 8.498 2.724 8.498 3s0.229 0.5 0.505 0.5c0.275 0 0.5-0.224 0.5-0.5S9.278 2.5 9.002 2.5z" fill="#ffffff" data-fill-palette-color="accent"></path><path d="M11.002 2.5h-0.011c-0.275 0-0.494 0.224-0.494 0.5s0.229 0.5 0.505 0.5c0.275 0 0.5-0.224 0.5-0.5S11.278 2.5 11.002 2.5z" fill="#ffffff" data-fill-palette-color="accent"></path><path d="M13.002 2.5h-0.011c-0.275 0-0.494 0.224-0.494 0.5s0.229 0.5 0.505 0.5c0.275 0 0.5-0.224 0.5-0.5S13.278 2.5 13.002 2.5z" fill="#ffffff" data-fill-palette-color="accent"></path><path d="M15.002 2.5h-0.011c-0.275 0-0.494 0.224-0.494 0.5s0.229 0.5 0.505 0.5c0.275 0 0.5-0.224 0.5-0.5S15.278 2.5 15.002 2.5z" fill="#ffffff" data-fill-palette-color="accent"></path><path d="M17.002 2.5h-0.011c-0.275 0-0.494 0.224-0.494 0.5s0.229 0.5 0.505 0.5c0.275 0 0.5-0.224 0.5-0.5S17.278 2.5 17.002 2.5z" fill="#ffffff" data-fill-palette-color="accent"></path><path d="M3.002 4.5H2.992C2.716 4.5 2.498 4.724 2.498 5s0.229 0.5 0.505 0.5c0.275 0 0.5-0.224 0.5-0.5S3.278 4.5 3.002 4.5z" fill="#ffffff" data-fill-palette-color="accent"></path><path d="M5.002 4.5H4.992C4.716 4.5 4.498 4.724 4.498 5s0.229 0.5 0.505 0.5c0.275 0 0.5-0.224 0.5-0.5S5.278 4.5 5.002 4.5z" fill="#ffffff" data-fill-palette-color="accent"></path><path d="M7.002 4.5H6.992C6.716 4.5 6.498 4.724 6.498 5s0.229 0.5 0.505 0.5c0.275 0 0.5-0.224 0.5-0.5S7.278 4.5 7.002 4.5z" fill="#ffffff" data-fill-palette-color="accent"></path><path d="M9.002 4.5H8.992C8.716 4.5 8.498 4.724 8.498 5s0.229 0.5 0.505 0.5c0.275 0 0.5-0.224 0.5-0.5S9.278 4.5 9.002 4.5z" fill="#ffffff" data-fill-palette-color="accent"></path><path d="M11.002 4.5h-0.011c-0.275 0-0.494 0.224-0.494 0.5s0.229 0.5 0.505 0.5c0.275 0 0.5-0.224 0.5-0.5S11.278 4.5 11.002 4.5z" fill="#ffffff" data-fill-palette-color="accent"></path><path d="M13.002 4.5h-0.011c-0.275 0-0.494 0.224-0.494 0.5s0.229 0.5 0.505 0.5c0.275 0 0.5-0.224 0.5-0.5S13.278 4.5 13.002 4.5z" fill="#ffffff" data-fill-palette-color="accent"></path><path d="M15.002 4.5h-0.011c-0.275 0-0.494 0.224-0.494 0.5s0.229 0.5 0.505 0.5c0.275 0 0.5-0.224 0.5-0.5S15.278 4.5 15.002 4.5z" fill="#ffffff" data-fill-palette-color="accent"></path><path d="M3.002 6.5H2.992C2.716 6.5 2.498 6.724 2.498 7s0.229 0.5 0.505 0.5c0.275 0 0.5-0.224 0.5-0.5S3.278 6.5 3.002 6.5z" fill="#ffffff" data-fill-palette-color="accent"></path><path d="M5.002 6.5H4.992C4.716 6.5 4.498 6.724 4.498 7s0.229 0.5 0.505 0.5c0.275 0 0.5-0.224 0.5-0.5S5.278 6.5 5.002 6.5z" fill="#ffffff" data-fill-palette-color="accent"></path><path d="M7.002 6.5H6.992C6.716 6.5 6.498 6.724 6.498 7s0.229 0.5 0.505 0.5c0.275 0 0.5-0.224 0.5-0.5S7.278 6.5 7.002 6.5z" fill="#ffffff" data-fill-palette-color="accent"></path><path d="M9.002 6.5H8.992C8.716 6.5 8.498 6.724 8.498 7s0.229 0.5 0.505 0.5c0.275 0 0.5-0.224 0.5-0.5S9.278 6.5 9.002 6.5z" fill="#ffffff" data-fill-palette-color="accent"></path><path d="M11.002 6.5h-0.011c-0.275 0-0.494 0.224-0.494 0.5s0.229 0.5 0.505 0.5c0.275 0 0.5-0.224 0.5-0.5S11.278 6.5 11.002 6.5z" fill="#ffffff" data-fill-palette-color="accent"></path><path d="M13.002 6.5h-0.011c-0.275 0-0.494 0.224-0.494 0.5s0.229 0.5 0.505 0.5c0.275 0 0.5-0.224 0.5-0.5S13.278 6.5 13.002 6.5z" fill="#ffffff" data-fill-palette-color="accent"></path><path d="M3.002 8.5H2.992C2.716 8.5 2.498 8.724 2.498 9s0.229 0.5 0.505 0.5c0.275 0 0.5-0.224 0.5-0.5S3.278 8.5 3.002 8.5z" fill="#ffffff" data-fill-palette-color="accent"></path><path d="M5.002 8.5H4.992C4.716 8.5 4.498 8.724 4.498 9s0.229 0.5 0.505 0.5c0.275 0 0.5-0.224 0.5-0.5S5.278 8.5 5.002 8.5z" fill="#ffffff" data-fill-palette-color="accent"></path><path d="M7.002 8.5H6.992C6.716 8.5 6.498 8.724 6.498 9s0.229 0.5 0.505 0.5c0.275 0 0.5-0.224 0.5-0.5S7.278 8.5 7.002 8.5z" fill="#ffffff" data-fill-palette-color="accent"></path><path d="M9.002 8.5H8.992C8.716 8.5 8.498 8.724 8.498 9s0.229 0.5 0.505 0.5c0.275 0 0.5-0.224 0.5-0.5S9.278 8.5 9.002 8.5z" fill="#ffffff" data-fill-palette-color="accent"></path><path d="M11.002 8.5h-0.011c-0.275 0-0.494 0.224-0.494 0.5s0.229 0.5 0.505 0.5c0.275 0 0.5-0.224 0.5-0.5S11.278 8.5 11.002 8.5z" fill="#ffffff" data-fill-palette-color="accent"></path><path d="M3.002 10.5H2.992c-0.275 0-0.494 0.224-0.494 0.5s0.229 0.5 0.505 0.5c0.275 0 0.5-0.224 0.5-0.5S3.278 10.5 3.002 10.5z" fill="#ffffff" data-fill-palette-color="accent"></path><path d="M5.002 10.5H4.992c-0.275 0-0.494 0.224-0.494 0.5s0.229 0.5 0.505 0.5c0.275 0 0.5-0.224 0.5-0.5S5.278 10.5 5.002 10.5z" fill="#ffffff" data-fill-palette-color="accent"></path><path d="M7.002 10.5H6.992c-0.275 0-0.494 0.224-0.494 0.5s0.229 0.5 0.505 0.5c0.275 0 0.5-0.224 0.5-0.5S7.278 10.5 7.002 10.5z" fill="#ffffff" data-fill-palette-color="accent"></path><path d="M9.002 10.5H8.992c-0.275 0-0.494 0.224-0.494 0.5s0.229 0.5 0.505 0.5c0.275 0 0.5-0.224 0.5-0.5S9.278 10.5 9.002 10.5z" fill="#ffffff" data-fill-palette-color="accent"></path><path d="M3.002 12.5H2.992c-0.275 0-0.494 0.224-0.494 0.5s0.229 0.5 0.505 0.5c0.275 0 0.5-0.224 0.5-0.5S3.278 12.5 3.002 12.5z" fill="#ffffff" data-fill-palette-color="accent"></path><path d="M5.002 12.5H4.992c-0.275 0-0.494 0.224-0.494 0.5s0.229 0.5 0.505 0.5c0.275 0 0.5-0.224 0.5-0.5S5.278 12.5 5.002 12.5z" fill="#ffffff" data-fill-palette-color="accent"></path><path d="M7.002 12.5H6.992c-0.275 0-0.494 0.224-0.494 0.5s0.229 0.5 0.505 0.5c0.275 0 0.5-0.224 0.5-0.5S7.278 12.5 7.002 12.5z" fill="#ffffff" data-fill-palette-color="accent"></path><path d="M11.002 10.5h-0.011c-0.275 0-0.494 0.224-0.494 0.5s0.229 0.5 0.505 0.5c0.275 0 0.5-0.224 0.5-0.5S11.278 10.5 11.002 10.5z" fill="#ffffff" data-fill-palette-color="accent"></path><path d="M13.002 10.5h-0.011c-0.275 0-0.494 0.224-0.494 0.5s0.229 0.5 0.505 0.5c0.275 0 0.5-0.224 0.5-0.5S13.278 10.5 13.002 10.5z" fill="#ffffff" data-fill-palette-color="accent"></path><path d="M11.002 12.5h-0.011c-0.275 0-0.494 0.224-0.494 0.5s0.229 0.5 0.505 0.5c0.275 0 0.5-0.224 0.5-0.5S11.278 12.5 11.002 12.5z" fill="#ffffff" data-fill-palette-color="accent"></path><path d="M13.002 12.5h-0.011c-0.275 0-0.494 0.224-0.494 0.5s0.229 0.5 0.505 0.5c0.275 0 0.5-0.224 0.5-0.5S13.278 12.5 13.002 12.5z" fill="#ffffff" data-fill-palette-color="accent"></path><path d="M15.002 12.5h-0.011c-0.275 0-0.494 0.224-0.494 0.5s0.229 0.5 0.505 0.5c0.275 0 0.5-0.224 0.5-0.5S15.278 12.5 15.002 12.5z" fill="#ffffff" data-fill-palette-color="accent"></path><path d="M13.002 14.5h-0.011c-0.275 0-0.494 0.224-0.494 0.5s0.229 0.5 0.505 0.5c0.275 0 0.5-0.224 0.5-0.5S13.278 14.5 13.002 14.5z" fill="#ffffff" data-fill-palette-color="accent"></path><path d="M15.002 14.5h-0.011c-0.275 0-0.494 0.224-0.494 0.5s0.229 0.5 0.505 0.5c0.275 0 0.5-0.224 0.5-0.5S15.278 14.5 15.002 14.5z" fill="#ffffff" data-fill-palette-color="accent"></path><path d="M17.002 14.5h-0.011c-0.275 0-0.494 0.224-0.494 0.5s0.229 0.5 0.505 0.5c0.275 0 0.5-0.224 0.5-0.5S17.278 14.5 17.002 14.5z" fill="#ffffff" data-fill-palette-color="accent"></path><path d="M15.002 16.5h-0.011c-0.275 0-0.494 0.224-0.494 0.5s0.229 0.5 0.505 0.5c0.275 0 0.5-0.224 0.5-0.5S15.278 16.5 15.002 16.5z" fill="#ffffff" data-fill-palette-color="accent"></path><path d="M17.002 16.5h-0.011c-0.275 0-0.494 0.224-0.494 0.5s0.229 0.5 0.505 0.5c0.275 0 0.5-0.224 0.5-0.5S17.278 16.5 17.002 16.5z" fill="#ffffff" data-fill-palette-color="accent"></path><path d="M19.002 16.5h-0.011c-0.275 0-0.494 0.224-0.494 0.5s0.229 0.5 0.505 0.5c0.275 0 0.5-0.224 0.5-0.5S19.278 16.5 19.002 16.5z" fill="#ffffff" data-fill-palette-color="accent"></path><path d="M17.002 18.5h-0.011c-0.275 0-0.494 0.224-0.494 0.5s0.229 0.5 0.505 0.5c0.275 0 0.5-0.224 0.5-0.5S17.278 18.5 17.002 18.5z" fill="#ffffff" data-fill-palette-color="accent"></path><path d="M19.002 18.5h-0.011c-0.275 0-0.494 0.224-0.494 0.5s0.229 0.5 0.505 0.5c0.275 0 0.5-0.224 0.5-0.5S19.278 18.5 19.002 18.5z" fill="#ffffff" data-fill-palette-color="accent"></path><path d="M21.002 18.5h-0.011c-0.275 0-0.494 0.224-0.494 0.5s0.229 0.5 0.505 0.5c0.275 0 0.5-0.224 0.5-0.5S21.278 18.5 21.002 18.5z" fill="#ffffff" data-fill-palette-color="accent"></path><path d="M19.002 20.5h-0.011c-0.275 0-0.494 0.224-0.494 0.5s0.229 0.5 0.505 0.5c0.275 0 0.5-0.224 0.5-0.5S19.278 20.5 19.002 20.5z" fill="#ffffff" data-fill-palette-color="accent"></path><path d="M3.002 14.5H2.992c-0.275 0-0.494 0.224-0.494 0.5s0.229 0.5 0.505 0.5c0.275 0 0.5-0.224 0.5-0.5S3.278 14.5 3.002 14.5z" fill="#ffffff" data-fill-palette-color="accent"></path><path d="M5.002 14.5H4.992c-0.275 0-0.494 0.224-0.494 0.5s0.229 0.5 0.505 0.5c0.275 0 0.5-0.224 0.5-0.5S5.278 14.5 5.002 14.5z" fill="#ffffff" data-fill-palette-color="accent"></path><path d="M3.002 16.5H2.992c-0.275 0-0.494 0.224-0.494 0.5s0.229 0.5 0.505 0.5c0.275 0 0.5-0.224 0.5-0.5S3.278 16.5 3.002 16.5z" fill="#ffffff" data-fill-palette-color="accent"></path></g></svg></g></svg></g><g></g></svg></g></svg></g></svg></g></svg></g><defs></defs></svg><rect width="320" height="360" fill="none" stroke="none" visibility="hidden"></rect></g></svg></g></svg>